<?xml version="1.0" encoding="UTF-8" standalone="no"?>
<!DOCTYPE svg PUBLIC "-//W3C//DTD SVG 1.1//EN" "http://www.w3.org/Graphics/SVG/1.1/DTD/svg11.dtd">
<svg width="100%" height="100%" viewBox="0 0 1400 900" version="1.1" xmlns="http://www.w3.org/2000/svg" xmlns:xlink="http://www.w3.org/1999/xlink" xml:space="preserve" xmlns:serif="http://www.serif.com/" style="fill-rule:evenodd;clip-rule:evenodd;stroke-linejoin:round;stroke-miterlimit:2;">
    <g transform="matrix(1.33333,0,0,1.33333,2.07407e-06,0)">
        <g>
            <clipPath id="_clip1">
                <path d="M224.137,325.977L279.02,325.977C279.844,325.977 280.516,326.648 280.516,327.477L280.516,354.285C280.516,355.109 279.844,355.781 279.02,355.781L224.137,355.781C223.309,355.781 222.641,355.109 222.641,354.285L222.641,327.477C222.641,326.648 223.309,325.977 224.137,325.977Z"/>
            </clipPath>
            <g clip-path="url(#_clip1)">
                <g transform="matrix(1,0,0,1,222,325)">
                    <g>
                        <g>
                            <g>
                                <clipPath id="_clip2">
                                    <path d="M2.137,0.977L57.02,0.977C57.844,0.977 58.516,1.648 58.516,2.477L58.516,29.285C58.516,30.109 57.844,30.781 57.02,30.781L2.137,30.781C1.309,30.781 0.641,30.109 0.641,29.285L0.641,2.477C0.641,1.648 1.309,0.977 2.137,0.977Z"/>
                                </clipPath>
                                <g clip-path="url(#_clip2)">
                                    <rect x="0.641" y="0.977" width="57.859" height="29.805" style="fill:rgb(255,93,42);fill-rule:nonzero;"/>
                                </g>
                            </g>
                        </g>
                    </g>
                </g>
            </g>
        </g>
    </g>
    <g transform="matrix(1.33333,0,0,1.33333,2.07407e-06,0)">
        <g>
            <clipPath id="_clip3">
                <path d="M803.57,336.777C791.332,336.777 781.41,346.703 781.41,358.941C781.41,371.18 791.332,381.102 803.57,381.102C815.809,381.102 825.734,371.18 825.734,358.941C825.734,346.703 815.809,336.777 803.57,336.777Z"/>
            </clipPath>
            <g clip-path="url(#_clip3)">
                <g transform="matrix(1,0,0,1,781,336)">
                    <g>
                        <g>
                            <g>
                                <clipPath id="_clip4">
                                    <path d="M22.57,0.777C10.332,0.777 0.41,10.703 0.41,22.941C0.41,35.18 10.332,45.102 22.57,45.102C34.809,45.102 44.734,35.18 44.734,22.941C44.734,10.703 34.809,0.777 22.57,0.777Z"/>
                                </clipPath>
                                <g clip-path="url(#_clip4)">
                                    <rect x="0.41" y="0.777" width="44.324" height="44.324" style="fill:rgb(255,93,42);fill-rule:nonzero;"/>
                                </g>
                            </g>
                        </g>
                    </g>
                </g>
            </g>
        </g>
    </g>
    <g transform="matrix(1.33333,0,0,1.33333,384,310.667)">
        <g>
            <g transform="matrix(1,0,0,1,1.88463,147.856)">
                <g>
                    <g>
                        <path d="M55.922,-90.688C70.473,-90.688 82.254,-87.578 91.266,-81.359C100.285,-75.148 104.797,-65.664 104.797,-52.906L72.375,-52.906C72.375,-62.977 66.891,-68.016 55.922,-68.016C44.953,-68.016 39.469,-61.688 39.469,-49.031L39.469,-39.469C39.469,-26.926 45.176,-20.656 56.594,-20.656C68.008,-20.656 73.719,-25.805 73.719,-36.109L104.797,-36.109C104.797,-23.234 100.285,-13.66 91.266,-7.391C82.254,-1.117 70.473,2.016 55.922,2.016C40.359,2.016 28.156,-1.898 19.313,-9.734C10.469,-17.578 6.047,-29.109 6.047,-44.328C6.047,-59.555 10.469,-71.086 19.313,-78.922C28.156,-86.766 40.359,-90.688 55.922,-90.688Z" style="fill:rgb(255,93,42);fill-rule:nonzero;"/>
                    </g>
                </g>
            </g>
            <g transform="matrix(1,0,0,1,96.7614,147.856)">
                <g>
                    <g>
                        <path d="M55.922,-90.688C71.484,-90.688 83.711,-86.738 92.609,-78.844C101.516,-70.945 105.969,-59.441 105.969,-44.328C105.969,-29.211 101.516,-17.707 92.609,-9.813C83.711,-1.926 71.484,2.016 55.922,2.016C40.359,2.016 28.156,-1.898 19.313,-9.734C10.469,-17.578 6.047,-29.109 6.047,-44.328C6.047,-59.555 10.469,-71.086 19.313,-78.922C28.156,-86.766 40.359,-90.688 55.922,-90.688ZM55.922,-68.016C44.953,-68.016 39.469,-61.688 39.469,-49.031L39.469,-39.469C39.469,-26.926 44.953,-20.656 55.922,-20.656C67.004,-20.656 72.547,-26.926 72.547,-39.469L72.547,-49.031C72.547,-61.688 67.004,-68.016 55.922,-68.016Z" style="fill:rgb(255,93,42);fill-rule:nonzero;"/>
                    </g>
                </g>
            </g>
            <g transform="matrix(1,0,0,1,191.638,147.856)">
                <g>
                    <g>
                        <path d="M71.203,-90.688C81.504,-90.688 89.227,-87.832 94.375,-82.125C99.531,-76.414 102.109,-68.188 102.109,-57.438L102.109,0L68.688,0L68.688,-53.406C68.688,-57.207 67.707,-60.254 65.75,-62.547C63.789,-64.848 61.02,-66 57.438,-66C53.289,-66 49.93,-64.656 47.359,-61.969C44.785,-59.281 43.5,-55.977 43.5,-52.063L43.5,0L10.078,0L10.078,-88.672L37.453,-88.672L39.641,-75.234C43.109,-79.941 47.664,-83.691 53.313,-86.484C58.969,-89.285 64.93,-90.688 71.203,-90.688Z" style="fill:rgb(255,93,42);fill-rule:nonzero;"/>
                    </g>
                </g>
            </g>
            <g transform="matrix(1,0,0,1,286.515,147.856)">
                <g>
                    <g>
                        <path d="M33.594,0L0,-88.672L35.938,-88.672L52.234,-33.422L53.406,-33.422L69.688,-88.672L102.609,-88.672L68.688,0L33.594,0Z" style="fill:rgb(255,93,42);fill-rule:nonzero;"/>
                    </g>
                </g>
            </g>
            <g transform="matrix(1,0,0,1,371.988,147.856)">
                <g>
                    <g>
                        <path d="M55.922,-90.688C71.484,-90.688 83.711,-86.738 92.609,-78.844C101.516,-70.945 105.969,-59.441 105.969,-44.328C105.969,-29.211 101.516,-17.707 92.609,-9.813C83.711,-1.926 71.484,2.016 55.922,2.016C40.359,2.016 28.156,-1.898 19.313,-9.734C10.469,-17.578 6.047,-29.109 6.047,-44.328C6.047,-59.555 10.469,-71.086 19.313,-78.922C28.156,-86.766 40.359,-90.688 55.922,-90.688ZM55.922,-68.016C44.953,-68.016 39.469,-61.688 39.469,-49.031L39.469,-39.469C39.469,-26.926 44.953,-20.656 55.922,-20.656C67.004,-20.656 72.547,-26.926 72.547,-39.469L72.547,-49.031C72.547,-61.688 67.004,-68.016 55.922,-68.016Z" style="fill:rgb(255,93,42);fill-rule:nonzero;"/>
                    </g>
                </g>
            </g>
        </g>
    </g>
</svg>
